<svg xmlns="http://www.w3.org/2000/svg" viewBox="0 0 116 116" width="116" height="116" role="img" aria-label="رمز QR"><rect width="116" height="116" fill="#FFFFFF"/><g fill="#0B3239"><rect x="8" y="8" width="4" height="4" rx="0.6"/><rect x="12" y="8" width="4" height="4" rx="0.6"/><rect x="16" y="8" width="4" height="4" rx="0.6"/><rect x="20" y="8" width="4" height="4" rx="0.6"/><rect x="24" y="8" width="4" height="4" rx="0.6"/><rect x="28" y="8" width="4" height="4" rx="0.6"/><rect x="32" y="8" width="4" height="4" rx="0.6"/><rect x="40" y="8" width="4" height="4" rx="0.6"/><rect x="48" y="8" width="4" height="4" rx="0.6"/><rect x="52" y="8" width="4" height="4" rx="0.6"/><rect x="60" y="8" width="4" height="4" rx="0.6"/><rect x="68" y="8" width="4" height="4" rx="0.6"/><rect x="80" y="8" width="4" height="4" rx="0.6"/><rect x="84" y="8" width="4" height="4" rx="0.6"/><rect x="88" y="8" width="4" height="4" rx="0.6"/><rect x="92" y="8" width="4" height="4" rx="0.6"/><rect x="96" y="8" width="4" height="4" rx="0.6"/><rect x="100" y="8" width="4" height="4" rx="0.6"/><rect x="104" y="8" width="4" height="4" rx="0.6"/><rect x="8" y="12" width="4" height="4" rx="0.6"/><rect x="32" y="12" width="4" height="4" rx="0.6"/><rect x="44" y="12" width="4" height="4" rx="0.6"/><rect x="52" y="12" width="4" height="4" rx="0.6"/><rect x="56" y="12" width="4" height="4" rx="0.6"/><rect x="68" y="12" width="4" height="4" rx="0.6"/><rect x="72" y="12" width="4" height="4" rx="0.6"/><rect x="80" y="12" width="4" height="4" rx="0.6"/><rect x="104" y="12" width="4" height="4" rx="0.6"/><rect x="8" y="16" width="4" height="4" rx="0.6"/><rect x="16" y="16" width="4" height="4" rx="0.6"/><rect x="20" y="16" width="4" height="4" rx="0.6"/><rect x="24" y="16" width="4" height="4" rx="0.6"/><rect x="32" y="16" width="4" height="4" rx="0.6"/><rect x="40" y="16" width="4" height="4" rx="0.6"/><rect x="48" y="16" width="4" height="4" rx="0.6"/><rect x="64" y="16" width="4" height="4" rx="0.6"/><rect x="72" y="16" width="4" height="4" rx="0.6"/><rect x="80" y="16" width="4" height="4" rx="0.6"/><rect x="88" y="16" width="4" height="4" rx="0.6"/><rect x="92" y="16" width="4" height="4" rx="0.6"/><rect x="96" y="16" width="4" height="4" rx="0.6"/><rect x="104" y="16" width="4" height="4" rx="0.6"/><rect x="8" y="20" width="4" height="4" rx="0.6"/><rect x="16" y="20" width="4" height="4" rx="0.6"/><rect x="20" y="20" width="4" height="4" rx="0.6"/><rect x="24" y="20" width="4" height="4" rx="0.6"/><rect x="32" y="20" width="4" height="4" rx="0.6"/><rect x="44" y="20" width="4" height="4" rx="0.6"/><rect x="56" y="20" width="4" height="4" rx="0.6"/><rect x="68" y="20" width="4" height="4" rx="0.6"/><rect x="80" y="20" width="4" height="4" rx="0.6"/><rect x="88" y="20" width="4" height="4" rx="0.6"/><rect x="92" y="20" width="4" height="4" rx="0.6"/><rect x="96" y="20" width="4" height="4" rx="0.6"/><rect x="104" y="20" width="4" height="4" rx="0.6"/><rect x="8" y="24" width="4" height="4" rx="0.6"/><rect x="16" y="24" width="4" height="4" rx="0.6"/><rect x="20" y="24" width="4" height="4" rx="0.6"/><rect x="24" y="24" width="4" height="4" rx="0.6"/><rect x="32" y="24" width="4" height="4" rx="0.6"/><rect x="40" y="24" width="4" height="4" rx="0.6"/><rect x="48" y="24" width="4" height="4" rx="0.6"/><rect x="56" y="24" width="4" height="4" rx="0.6"/><rect x="60" y="24" width="4" height="4" rx="0.6"/><rect x="64" y="24" width="4" height="4" rx="0.6"/><rect x="68" y="24" width="4" height="4" rx="0.6"/><rect x="80" y="24" width="4" height="4" rx="0.6"/><rect x="88" y="24" width="4" height="4" rx="0.6"/><rect x="92" y="24" width="4" height="4" rx="0.6"/><rect x="96" y="24" width="4" height="4" rx="0.6"/><rect x="104" y="24" width="4" height="4" rx="0.6"/><rect x="8" y="28" width="4" height="4" rx="0.6"/><rect x="32" y="28" width="4" height="4" rx="0.6"/><rect x="52" y="28" width="4" height="4" rx="0.6"/><rect x="56" y="28" width="4" height="4" rx="0.6"/><rect x="64" y="28" width="4" height="4" rx="0.6"/><rect x="68" y="28" width="4" height="4" rx="0.6"/><rect x="80" y="28" width="4" height="4" rx="0.6"/><rect x="104" y="28" width="4" height="4" rx="0.6"/><rect x="8" y="32" width="4" height="4" rx="0.6"/><rect x="12" y="32" width="4" height="4" rx="0.6"/><rect x="16" y="32" width="4" height="4" rx="0.6"/><rect x="20" y="32" width="4" height="4" rx="0.6"/><rect x="24" y="32" width="4" height="4" rx="0.6"/><rect x="28" y="32" width="4" height="4" rx="0.6"/><rect x="32" y="32" width="4" height="4" rx="0.6"/><rect x="40" y="32" width="4" height="4" rx="0.6"/><rect x="48" y="32" width="4" height="4" rx="0.6"/><rect x="56" y="32" width="4" height="4" rx="0.6"/><rect x="64" y="32" width="4" height="4" rx="0.6"/><rect x="72" y="32" width="4" height="4" rx="0.6"/><rect x="80" y="32" width="4" height="4" rx="0.6"/><rect x="84" y="32" width="4" height="4" rx="0.6"/><rect x="88" y="32" width="4" height="4" rx="0.6"/><rect x="92" y="32" width="4" height="4" rx="0.6"/><rect x="96" y="32" width="4" height="4" rx="0.6"/><rect x="100" y="32" width="4" height="4" rx="0.6"/><rect x="104" y="32" width="4" height="4" rx="0.6"/><rect x="44" y="36" width="4" height="4" rx="0.6"/><rect x="56" y="36" width="4" height="4" rx="0.6"/><rect x="60" y="36" width="4" height="4" rx="0.6"/><rect x="12" y="40" width="4" height="4" rx="0.6"/><rect x="24" y="40" width="4" height="4" rx="0.6"/><rect x="32" y="40" width="4" height="4" rx="0.6"/><rect x="52" y="40" width="4" height="4" rx="0.6"/><rect x="56" y="40" width="4" height="4" rx="0.6"/><rect x="60" y="40" width="4" height="4" rx="0.6"/><rect x="68" y="40" width="4" height="4" rx="0.6"/><rect x="72" y="40" width="4" height="4" rx="0.6"/><rect x="88" y="40" width="4" height="4" rx="0.6"/><rect x="96" y="40" width="4" height="4" rx="0.6"/><rect x="104" y="40" width="4" height="4" rx="0.6"/><rect x="8" y="44" width="4" height="4" rx="0.6"/><rect x="24" y="44" width="4" height="4" rx="0.6"/><rect x="28" y="44" width="4" height="4" rx="0.6"/><rect x="36" y="44" width="4" height="4" rx="0.6"/><rect x="48" y="44" width="4" height="4" rx="0.6"/><rect x="56" y="44" width="4" height="4" rx="0.6"/><rect x="60" y="44" width="4" height="4" rx="0.6"/><rect x="72" y="44" width="4" height="4" rx="0.6"/><rect x="76" y="44" width="4" height="4" rx="0.6"/><rect x="80" y="44" width="4" height="4" rx="0.6"/><rect x="104" y="44" width="4" height="4" rx="0.6"/><rect x="8" y="48" width="4" height="4" rx="0.6"/><rect x="24" y="48" width="4" height="4" rx="0.6"/><rect x="28" y="48" width="4" height="4" rx="0.6"/><rect x="32" y="48" width="4" height="4" rx="0.6"/><rect x="36" y="48" width="4" height="4" rx="0.6"/><rect x="40" y="48" width="4" height="4" rx="0.6"/><rect x="56" y="48" width="4" height="4" rx="0.6"/><rect x="60" y="48" width="4" height="4" rx="0.6"/><rect x="64" y="48" width="4" height="4" rx="0.6"/><rect x="72" y="48" width="4" height="4" rx="0.6"/><rect x="80" y="48" width="4" height="4" rx="0.6"/><rect x="84" y="48" width="4" height="4" rx="0.6"/><rect x="96" y="48" width="4" height="4" rx="0.6"/><rect x="100" y="48" width="4" height="4" rx="0.6"/><rect x="104" y="48" width="4" height="4" rx="0.6"/><rect x="16" y="52" width="4" height="4" rx="0.6"/><rect x="20" y="52" width="4" height="4" rx="0.6"/><rect x="24" y="52" width="4" height="4" rx="0.6"/><rect x="40" y="52" width="4" height="4" rx="0.6"/><rect x="44" y="52" width="4" height="4" rx="0.6"/><rect x="48" y="52" width="4" height="4" rx="0.6"/><rect x="60" y="52" width="4" height="4" rx="0.6"/><rect x="64" y="52" width="4" height="4" rx="0.6"/><rect x="72" y="52" width="4" height="4" rx="0.6"/><rect x="84" y="52" width="4" height="4" rx="0.6"/><rect x="100" y="52" width="4" height="4" rx="0.6"/><rect x="8" y="56" width="4" height="4" rx="0.6"/><rect x="12" y="56" width="4" height="4" rx="0.6"/><rect x="20" y="56" width="4" height="4" rx="0.6"/><rect x="24" y="56" width="4" height="4" rx="0.6"/><rect x="28" y="56" width="4" height="4" rx="0.6"/><rect x="32" y="56" width="4" height="4" rx="0.6"/><rect x="36" y="56" width="4" height="4" rx="0.6"/><rect x="52" y="56" width="4" height="4" rx="0.6"/><rect x="60" y="56" width="4" height="4" rx="0.6"/><rect x="68" y="56" width="4" height="4" rx="0.6"/><rect x="72" y="56" width="4" height="4" rx="0.6"/><rect x="76" y="56" width="4" height="4" rx="0.6"/><rect x="80" y="56" width="4" height="4" rx="0.6"/><rect x="84" y="56" width="4" height="4" rx="0.6"/><rect x="92" y="56" width="4" height="4" rx="0.6"/><rect x="100" y="56" width="4" height="4" rx="0.6"/><rect x="104" y="56" width="4" height="4" rx="0.6"/><rect x="20" y="60" width="4" height="4" rx="0.6"/><rect x="36" y="60" width="4" height="4" rx="0.6"/><rect x="44" y="60" width="4" height="4" rx="0.6"/><rect x="48" y="60" width="4" height="4" rx="0.6"/><rect x="52" y="60" width="4" height="4" rx="0.6"/><rect x="72" y="60" width="4" height="4" rx="0.6"/><rect x="80" y="60" width="4" height="4" rx="0.6"/><rect x="92" y="60" width="4" height="4" rx="0.6"/><rect x="104" y="60" width="4" height="4" rx="0.6"/><rect x="8" y="64" width="4" height="4" rx="0.6"/><rect x="24" y="64" width="4" height="4" rx="0.6"/><rect x="28" y="64" width="4" height="4" rx="0.6"/><rect x="32" y="64" width="4" height="4" rx="0.6"/><rect x="60" y="64" width="4" height="4" rx="0.6"/><rect x="76" y="64" width="4" height="4" rx="0.6"/><rect x="80" y="64" width="4" height="4" rx="0.6"/><rect x="84" y="64" width="4" height="4" rx="0.6"/><rect x="96" y="64" width="4" height="4" rx="0.6"/><rect x="100" y="64" width="4" height="4" rx="0.6"/><rect x="104" y="64" width="4" height="4" rx="0.6"/><rect x="12" y="68" width="4" height="4" rx="0.6"/><rect x="16" y="68" width="4" height="4" rx="0.6"/><rect x="20" y="68" width="4" height="4" rx="0.6"/><rect x="24" y="68" width="4" height="4" rx="0.6"/><rect x="40" y="68" width="4" height="4" rx="0.6"/><rect x="44" y="68" width="4" height="4" rx="0.6"/><rect x="52" y="68" width="4" height="4" rx="0.6"/><rect x="60" y="68" width="4" height="4" rx="0.6"/><rect x="64" y="68" width="4" height="4" rx="0.6"/><rect x="68" y="68" width="4" height="4" rx="0.6"/><rect x="88" y="68" width="4" height="4" rx="0.6"/><rect x="100" y="68" width="4" height="4" rx="0.6"/><rect x="8" y="72" width="4" height="4" rx="0.6"/><rect x="16" y="72" width="4" height="4" rx="0.6"/><rect x="20" y="72" width="4" height="4" rx="0.6"/><rect x="28" y="72" width="4" height="4" rx="0.6"/><rect x="32" y="72" width="4" height="4" rx="0.6"/><rect x="36" y="72" width="4" height="4" rx="0.6"/><rect x="40" y="72" width="4" height="4" rx="0.6"/><rect x="44" y="72" width="4" height="4" rx="0.6"/><rect x="48" y="72" width="4" height="4" rx="0.6"/><rect x="56" y="72" width="4" height="4" rx="0.6"/><rect x="60" y="72" width="4" height="4" rx="0.6"/><rect x="68" y="72" width="4" height="4" rx="0.6"/><rect x="72" y="72" width="4" height="4" rx="0.6"/><rect x="76" y="72" width="4" height="4" rx="0.6"/><rect x="80" y="72" width="4" height="4" rx="0.6"/><rect x="84" y="72" width="4" height="4" rx="0.6"/><rect x="88" y="72" width="4" height="4" rx="0.6"/><rect x="92" y="72" width="4" height="4" rx="0.6"/><rect x="40" y="76" width="4" height="4" rx="0.6"/><rect x="52" y="76" width="4" height="4" rx="0.6"/><rect x="56" y="76" width="4" height="4" rx="0.6"/><rect x="68" y="76" width="4" height="4" rx="0.6"/><rect x="72" y="76" width="4" height="4" rx="0.6"/><rect x="88" y="76" width="4" height="4" rx="0.6"/><rect x="92" y="76" width="4" height="4" rx="0.6"/><rect x="100" y="76" width="4" height="4" rx="0.6"/><rect x="104" y="76" width="4" height="4" rx="0.6"/><rect x="8" y="80" width="4" height="4" rx="0.6"/><rect x="12" y="80" width="4" height="4" rx="0.6"/><rect x="16" y="80" width="4" height="4" rx="0.6"/><rect x="20" y="80" width="4" height="4" rx="0.6"/><rect x="24" y="80" width="4" height="4" rx="0.6"/><rect x="28" y="80" width="4" height="4" rx="0.6"/><rect x="32" y="80" width="4" height="4" rx="0.6"/><rect x="52" y="80" width="4" height="4" rx="0.6"/><rect x="56" y="80" width="4" height="4" rx="0.6"/><rect x="68" y="80" width="4" height="4" rx="0.6"/><rect x="72" y="80" width="4" height="4" rx="0.6"/><rect x="80" y="80" width="4" height="4" rx="0.6"/><rect x="88" y="80" width="4" height="4" rx="0.6"/><rect x="92" y="80" width="4" height="4" rx="0.6"/><rect x="100" y="80" width="4" height="4" rx="0.6"/><rect x="104" y="80" width="4" height="4" rx="0.6"/><rect x="8" y="84" width="4" height="4" rx="0.6"/><rect x="32" y="84" width="4" height="4" rx="0.6"/><rect x="48" y="84" width="4" height="4" rx="0.6"/><rect x="56" y="84" width="4" height="4" rx="0.6"/><rect x="60" y="84" width="4" height="4" rx="0.6"/><rect x="64" y="84" width="4" height="4" rx="0.6"/><rect x="72" y="84" width="4" height="4" rx="0.6"/><rect x="88" y="84" width="4" height="4" rx="0.6"/><rect x="92" y="84" width="4" height="4" rx="0.6"/><rect x="100" y="84" width="4" height="4" rx="0.6"/><rect x="104" y="84" width="4" height="4" rx="0.6"/><rect x="8" y="88" width="4" height="4" rx="0.6"/><rect x="16" y="88" width="4" height="4" rx="0.6"/><rect x="20" y="88" width="4" height="4" rx="0.6"/><rect x="24" y="88" width="4" height="4" rx="0.6"/><rect x="32" y="88" width="4" height="4" rx="0.6"/><rect x="40" y="88" width="4" height="4" rx="0.6"/><rect x="44" y="88" width="4" height="4" rx="0.6"/><rect x="52" y="88" width="4" height="4" rx="0.6"/><rect x="64" y="88" width="4" height="4" rx="0.6"/><rect x="72" y="88" width="4" height="4" rx="0.6"/><rect x="76" y="88" width="4" height="4" rx="0.6"/><rect x="80" y="88" width="4" height="4" rx="0.6"/><rect x="84" y="88" width="4" height="4" rx="0.6"/><rect x="88" y="88" width="4" height="4" rx="0.6"/><rect x="92" y="88" width="4" height="4" rx="0.6"/><rect x="100" y="88" width="4" height="4" rx="0.6"/><rect x="104" y="88" width="4" height="4" rx="0.6"/><rect x="8" y="92" width="4" height="4" rx="0.6"/><rect x="16" y="92" width="4" height="4" rx="0.6"/><rect x="20" y="92" width="4" height="4" rx="0.6"/><rect x="24" y="92" width="4" height="4" rx="0.6"/><rect x="32" y="92" width="4" height="4" rx="0.6"/><rect x="44" y="92" width="4" height="4" rx="0.6"/><rect x="52" y="92" width="4" height="4" rx="0.6"/><rect x="84" y="92" width="4" height="4" rx="0.6"/><rect x="88" y="92" width="4" height="4" rx="0.6"/><rect x="92" y="92" width="4" height="4" rx="0.6"/><rect x="96" y="92" width="4" height="4" rx="0.6"/><rect x="8" y="96" width="4" height="4" rx="0.6"/><rect x="16" y="96" width="4" height="4" rx="0.6"/><rect x="20" y="96" width="4" height="4" rx="0.6"/><rect x="24" y="96" width="4" height="4" rx="0.6"/><rect x="32" y="96" width="4" height="4" rx="0.6"/><rect x="44" y="96" width="4" height="4" rx="0.6"/><rect x="60" y="96" width="4" height="4" rx="0.6"/><rect x="88" y="96" width="4" height="4" rx="0.6"/><rect x="104" y="96" width="4" height="4" rx="0.6"/><rect x="8" y="100" width="4" height="4" rx="0.6"/><rect x="32" y="100" width="4" height="4" rx="0.6"/><rect x="40" y="100" width="4" height="4" rx="0.6"/><rect x="44" y="100" width="4" height="4" rx="0.6"/><rect x="52" y="100" width="4" height="4" rx="0.6"/><rect x="68" y="100" width="4" height="4" rx="0.6"/><rect x="72" y="100" width="4" height="4" rx="0.6"/><rect x="88" y="100" width="4" height="4" rx="0.6"/><rect x="92" y="100" width="4" height="4" rx="0.6"/><rect x="100" y="100" width="4" height="4" rx="0.6"/><rect x="8" y="104" width="4" height="4" rx="0.6"/><rect x="12" y="104" width="4" height="4" rx="0.6"/><rect x="16" y="104" width="4" height="4" rx="0.6"/><rect x="20" y="104" width="4" height="4" rx="0.6"/><rect x="24" y="104" width="4" height="4" rx="0.6"/><rect x="28" y="104" width="4" height="4" rx="0.6"/><rect x="32" y="104" width="4" height="4" rx="0.6"/><rect x="44" y="104" width="4" height="4" rx="0.6"/><rect x="56" y="104" width="4" height="4" rx="0.6"/><rect x="68" y="104" width="4" height="4" rx="0.6"/><rect x="72" y="104" width="4" height="4" rx="0.6"/><rect x="80" y="104" width="4" height="4" rx="0.6"/><rect x="84" y="104" width="4" height="4" rx="0.6"/><rect x="100" y="104" width="4" height="4" rx="0.6"/><rect x="104" y="104" width="4" height="4" rx="0.6"/></g></svg>